<svg width="14" height="14" viewBox="0 0 14 14" fill="none" xmlns="http://www.w3.org/2000/svg">
<path d="M13.6738 12.7015C13.7377 12.7654 13.7883 12.8412 13.8229 12.9246C13.8575 13.0081 13.8753 13.0975 13.8753 13.1879C13.8753 13.2782 13.8575 13.3677 13.8229 13.4511C13.7883 13.5346 13.7377 13.6104 13.6738 13.6743C13.6099 13.7382 13.5341 13.7888 13.4506 13.8234C13.3672 13.858 13.2777 13.8758 13.1874 13.8758C13.0971 13.8758 13.0076 13.858 12.9242 13.8234C12.8407 13.7888 12.7649 13.7382 12.701 13.6743L6.99989 7.97234L1.2988 13.6743C1.1698 13.8033 0.994832 13.8758 0.812394 13.8758C0.629956 13.8758 0.454991 13.8033 0.325988 13.6743C0.196985 13.5453 0.124512 13.3703 0.124512 13.1879C0.124512 13.0054 0.196985 12.8305 0.325988 12.7015L6.02794 7.00038L0.325988 1.29929C0.196985 1.17029 0.124512 0.99532 0.124512 0.812882C0.124512 0.630445 0.196985 0.455479 0.325988 0.326476C0.454991 0.197473 0.629956 0.125 0.812394 0.125C0.994832 0.125 1.1698 0.197473 1.2988 0.326476L6.99989 6.02843L12.701 0.326476C12.83 0.197473 13.005 0.125 13.1874 0.125C13.3698 0.125 13.5448 0.197473 13.6738 0.326476C13.8028 0.455479 13.8753 0.630445 13.8753 0.812882C13.8753 0.99532 13.8028 1.17029 13.6738 1.29929L7.97185 7.00038L13.6738 12.7015Z" fill="black"/>
</svg>
