<svg width="current" height="current" viewBox="0 0 15 16" fill="none" xmlns="http://www.w3.org/2000/svg">
<circle cx="7.5" cy="8" r="7.5" fill="white" fill-opacity="0.25"/>
<path d="M10.6133 10.66C10.6431 10.6898 10.6668 10.7252 10.6829 10.7641C10.699 10.803 10.7073 10.8448 10.7073 10.8869C10.7073 10.929 10.699 10.9708 10.6829 11.0097C10.6668 11.0486 10.6431 11.084 10.6133 11.1138C10.5835 11.1436 10.5481 11.1672 10.5092 11.1834C10.4703 11.1995 10.4286 11.2078 10.3864 11.2078C10.3443 11.2078 10.3025 11.1995 10.2636 11.1834C10.2247 11.1672 10.1893 11.1436 10.1595 11.1138L7.4999 8.45381L4.84029 11.1138C4.78011 11.174 4.69849 11.2078 4.61338 11.2078C4.52827 11.2078 4.44665 11.174 4.38647 11.1138C4.32629 11.0536 4.29248 10.972 4.29248 10.8869C4.29248 10.8018 4.32629 10.7202 4.38647 10.66L7.04647 8.00038L4.38647 5.34078C4.32629 5.2806 4.29248 5.19898 4.29248 5.11387C4.29248 5.02876 4.32629 4.94714 4.38647 4.88696C4.44665 4.82678 4.52827 4.79297 4.61338 4.79297C4.69849 4.79297 4.78011 4.82678 4.84029 4.88696L7.4999 7.54696L10.1595 4.88696C10.2197 4.82678 10.3013 4.79297 10.3864 4.79297C10.4715 4.79297 10.5531 4.82678 10.6133 4.88696C10.6735 4.94714 10.7073 5.02876 10.7073 5.11387C10.7073 5.19898 10.6735 5.2806 10.6133 5.34078L7.95332 8.00038L10.6133 10.66Z" fill="current"/>
</svg>
