<svg width="15" height="15" viewBox="0 0 15 15" fill="none" xmlns="http://www.w3.org/2000/svg">
<path d="M14.5614 9.56256C14.1072 11.0454 13.1968 12.3473 11.9599 13.2828C10.8739 14.1002 9.58157 14.5987 8.22799 14.7224C6.87442 14.846 5.51316 14.59 4.297 13.983C3.08084 13.3761 2.05793 12.4421 1.34307 11.2861C0.628212 10.13 0.249705 8.79764 0.250034 7.43842C0.245147 5.85193 0.760897 4.30765 1.71816 3.04249C2.65369 1.80554 3.95552 0.895174 5.43839 0.440924C5.53613 0.41083 5.64021 0.407949 5.73946 0.432589C5.83871 0.457229 5.92936 0.508458 6.00167 0.580768C6.07398 0.653078 6.12521 0.743731 6.14985 0.84298C6.17449 0.942228 6.17161 1.04632 6.14152 1.14405C5.81727 2.21662 5.79008 3.35706 6.06285 4.44386C6.33563 5.53066 6.89815 6.52309 7.69047 7.31541C8.48279 8.10773 9.47522 8.67025 10.562 8.94303C11.6488 9.2158 12.7893 9.18861 13.8618 8.86436C13.9596 8.83427 14.0637 8.83139 14.1629 8.85603C14.2621 8.88067 14.3528 8.9319 14.4251 9.00421C14.4974 9.07652 14.5487 9.16717 14.5733 9.26642C14.5979 9.36567 14.595 9.46975 14.565 9.56749L14.5614 9.56256Z" fill="#BDC2C6"/>
</svg>
