<svg width="72" height="72" viewBox="0 0 72 72" fill="none" xmlns="http://www.w3.org/2000/svg">
<path fill-rule="evenodd" clip-rule="evenodd" d="M55.292 56.5725C60.1913 52.867 63.7971 47.7107 65.5963 41.8373L65.6102 41.8568C65.7294 41.4697 65.7408 41.0574 65.6432 40.6643C65.5456 40.2712 65.3427 39.9121 65.0563 39.6257C64.7699 39.3393 64.4109 39.1364 64.0177 39.0388C63.6246 38.9412 63.2124 38.9526 62.8253 39.0718C58.577 40.3561 54.0599 40.4638 49.7553 39.3834C45.4506 38.303 41.5198 36.075 38.3815 32.9367C35.2433 29.7985 33.0153 25.8676 31.9349 21.563C30.8544 17.2584 30.9621 12.7412 32.2464 8.49299C32.3656 8.10589 32.377 7.69361 32.2794 7.30051C32.1818 6.9074 31.9789 6.54834 31.6925 6.26193C31.4061 5.97553 31.0471 5.77261 30.654 5.67502C30.2608 5.57742 29.8486 5.58884 29.4615 5.70803C23.5881 7.50724 18.4318 11.1131 14.7263 16.0124C10.9347 21.0235 8.89191 27.1401 8.91127 33.4239C8.91076 35.5222 9.13819 37.6044 9.58359 39.6353C11.3724 38.8661 13.3436 38.4401 15.4143 38.4401C23.5731 38.4401 30.1872 45.0541 30.1872 53.2129C30.1872 55.9501 29.4427 58.5134 28.1453 60.7114C32.0918 62.1189 36.3105 62.6581 40.5106 62.2743C45.8719 61.7844 50.9905 59.8099 55.292 56.5725Z" fill="#DFE1E4"/>
<circle cx="15.4155" cy="53.2124" r="12.2036" fill="#DFE1E4"/>
<path fill-rule="evenodd" clip-rule="evenodd" d="M45.7779 14.4993C45.7779 14.4993 45.7388 14.6744 45.6028 14.6744C45.4819 14.6744 45.4307 14.5022 45.4307 14.5022C44.9685 12.7945 43.6235 11.4495 41.9157 10.9873C41.9157 10.9873 41.7489 10.949 41.749 10.8206C41.7491 10.6921 41.9333 10.6363 41.9333 10.6363C43.6269 10.1713 44.9608 8.8373 45.4259 7.14371C45.4259 7.14371 45.4819 6.9668 45.6028 6.9668C45.7237 6.9668 45.7826 7.14664 45.7826 7.14664C46.2482 8.83787 47.5803 10.17 49.2715 10.6355C49.2715 10.6355 49.4566 10.6921 49.4566 10.8206C49.4566 10.949 49.2891 10.9881 49.2891 10.9881C47.5837 11.4508 46.2405 12.7939 45.7779 14.4993Z" fill="#DFE1E4"/>
<path fill-rule="evenodd" clip-rule="evenodd" d="M63.7921 20.2508C63.7921 20.2508 63.7466 20.455 63.5879 20.455C63.4468 20.455 63.3871 20.2542 63.3871 20.2542C62.8478 18.2618 61.2787 16.6927 59.2863 16.1535C59.2863 16.1535 59.0917 16.1088 59.0918 15.959C59.0919 15.8091 59.3068 15.744 59.3068 15.744C61.2826 15.2015 62.8389 13.6451 63.3815 11.6693C63.3815 11.6693 63.4468 11.4629 63.5879 11.4629C63.7289 11.4629 63.7977 11.6727 63.7977 11.6727C64.3408 13.6458 65.895 15.2 67.8681 15.7431C67.8681 15.7431 68.0839 15.8091 68.0839 15.959C68.0839 16.1088 67.8885 16.1544 67.8885 16.1544C65.8989 16.6942 64.3319 18.2612 63.7921 20.2508Z" fill="#DFE1E4"/>
<path fill-rule="evenodd" clip-rule="evenodd" d="M53.3245 32.324C53.3245 32.324 53.2496 32.6595 52.989 32.6595C52.7572 32.6595 52.659 32.3296 52.659 32.3296C51.7731 29.0564 49.1953 26.4786 45.9221 25.5927C45.9221 25.5927 45.6023 25.5193 45.6025 25.2731C45.6027 25.0269 45.9557 24.92 45.9557 24.92C49.2017 24.0286 51.7585 21.4719 52.6499 18.2258C52.6499 18.2258 52.7572 17.8867 52.989 17.8867C53.2207 17.8867 53.3336 18.2314 53.3336 18.2314C54.2259 21.4729 56.7792 24.0262 60.0207 24.9184C60.0207 24.9184 60.3754 25.0269 60.3754 25.2731C60.3754 25.5193 60.0543 25.5942 60.0543 25.5942C56.7856 26.481 54.2113 29.0553 53.3245 32.324Z" fill="#DFE1E4"/>
<path d="M15.415 45.5049L15.415 53.8547H23.7649" stroke="white" stroke-width="1.60574" stroke-linecap="round" stroke-linejoin="round"/>
</svg>
