<svg width="88" height="37" viewBox="0 0 88 37" fill="none" xmlns="http://www.w3.org/2000/svg">
<path d="M45.071 36.5754C44.6711 37.1123 43.867 37.1123 43.4671 36.5754L36.9977 27.8903C36.5063 27.2307 36.9771 26.293 37.7997 26.293L50.7384 26.293C51.561 26.293 52.0318 27.2307 51.5404 27.8903L45.071 36.5754Z" fill="#DC4965"/>
<path d="M0 15C0 6.71573 6.71573 0 15 0H73C81.2843 0 88 6.71573 88 15V15C88 23.2843 81.2843 30 73 30H15C6.71573 30 0 23.2843 0 15V15Z" fill="#DC4965"/>
<path d="M14.5822 9.28711V11.2422H17.8498V9.28711H19.135V15.3848H13.3107V9.28711H14.5822ZM14.5822 14.3457H17.8498V12.2539H14.5822V14.3457ZM22.8264 8.42578V17.4492H21.5275V8.42578H22.8264ZM23.1271 19.3496V20.4023H14.7463V16.5332H16.0588V19.3496H23.1271ZM28.9634 12.0215C28.9634 13.9629 30.2349 16.123 32.0943 16.998L31.356 18.0098C29.982 17.3467 28.895 15.9658 28.3482 14.3594C27.7808 16.1162 26.6323 17.627 25.231 18.3242L24.4654 17.2988C26.3247 16.4102 27.6782 14.0996 27.6782 12.0215V10.7227H24.9165V9.64258H31.6294V10.7227H28.9634V12.0215ZM34.2407 8.41211V13.2656H36.2095V14.3594H34.2407V20.6621H32.9419V8.41211H34.2407ZM46.8993 8.41211V20.6895H45.6004V8.41211H46.8993ZM43.1532 9.51953V13.9902H38.7508V16.6699C40.7332 16.6631 42.4696 16.5742 44.5204 16.2324L44.6434 17.2988C42.4696 17.668 40.6239 17.75 38.4637 17.75H37.4246V12.9512H41.827V10.5723H37.411V9.51953H43.1532ZM63.3022 15.6172V16.6426H58.2983V20.6621H57.0268V16.6426H52.0913V15.6172H63.3022ZM54.771 8.9043V10.5039H60.5952V8.9043H61.894V14.2227H53.4858V8.9043H54.771ZM54.771 13.1836H60.5952V11.543H54.771V13.1836ZM74.3064 8.89062V9.94336H70.5877C70.7176 11.1602 72.4744 12.1787 74.7303 12.418L74.2518 13.4434C72.1395 13.1973 70.3895 12.3018 69.7264 10.9961C69.0428 12.3018 67.2996 13.1973 65.1873 13.4434L64.7225 12.418C66.9578 12.1787 68.7078 11.1533 68.8514 9.94336H65.16V8.89062H74.3064ZM75.3318 14.5098V15.5625H64.1346V14.5098H69.0701V12.7324H70.3553V14.5098H75.3318ZM73.9373 16.6562V20.6621H72.6248V17.6953H65.3787V16.6562H73.9373Z" fill="white"/>
</svg>
