<svg width="49" height="37" viewBox="0 0 49 37" fill="none" xmlns="http://www.w3.org/2000/svg">
<path d="M25.071 36.5754C24.6711 37.1123 23.867 37.1123 23.4671 36.5754L16.9977 27.8903C16.5063 27.2307 16.9771 26.293 17.7997 26.293L30.7384 26.293C31.561 26.293 32.0318 27.2307 31.5404 27.8903L25.071 36.5754Z" fill="#A0A4A8"/>
<path d="M0 15C0 6.71573 6.71573 0 15 0H34C42.2843 0 49 6.71573 49 15V15C49 23.2843 42.2843 30 34 30H15C6.71573 30 0 23.2843 0 15V15Z" fill="#A0A4A8"/>
<path d="M24.0975 18.0645V19.1445H12.8866V18.0645H17.8221V15.5488H14.1717V9.24609H15.4705V11.3516H21.4862V9.24609H22.7713V15.5488H19.1073V18.0645H24.0975ZM15.4705 14.4961H21.4862V12.4043H15.4705V14.4961ZM36.0861 14.8516V15.877H24.8888V14.8516H29.838V13.7852H26.3517V8.74023H34.7189V9.76562H27.6642V10.7637H34.4045V11.7344H27.6642V12.7734H34.8009V13.7852H31.1369V14.8516H36.0861ZM30.4943 16.6836C33.1877 16.6699 34.7189 17.3809 34.7189 18.666C34.7189 19.9648 33.1877 20.6484 30.4943 20.6348C27.7736 20.6484 26.2423 19.9648 26.2423 18.666C26.2423 17.3809 27.7736 16.6699 30.4943 16.6836ZM30.4943 17.6543C28.5666 17.6543 27.5275 18.0098 27.5412 18.666C27.5275 19.3223 28.5666 19.6641 30.4943 19.6504C32.3947 19.6641 33.4201 19.3223 33.4201 18.666C33.4201 18.0098 32.3947 17.6543 30.4943 17.6543Z" fill="white"/>
</svg>
