<svg width="88" height="37" viewBox="0 0 88 37" fill="none" xmlns="http://www.w3.org/2000/svg">
<path d="M72.7722 36.5754C72.3723 37.1123 71.5681 37.1123 71.1683 36.5754L64.6989 27.8903C64.2075 27.2307 64.6783 26.293 65.5008 26.293L78.4396 26.293C79.2622 26.293 79.7329 27.2307 79.2416 27.8903L72.7722 36.5754Z" fill="#93CF7E"/>
<path d="M0 15C0 6.71573 6.71573 0 15 0H73C81.2843 0 88 6.71573 88 15V15C88 23.2843 81.2843 30 73 30H15C6.71573 30 0 23.2843 0 15V15Z" fill="#93CF7E"/>
<path d="M14.5822 9.28711V11.2422H17.8498V9.28711H19.135V15.3848H13.3107V9.28711H14.5822ZM14.5822 14.3457H17.8498V12.2539H14.5822V14.3457ZM22.8264 8.42578V17.4492H21.5275V8.42578H22.8264ZM23.1271 19.3496V20.4023H14.7463V16.5332H16.0588V19.3496H23.1271ZM28.9634 12.0215C28.9634 13.9629 30.2349 16.123 32.0943 16.998L31.356 18.0098C29.982 17.3467 28.895 15.9658 28.3482 14.3594C27.7808 16.1162 26.6323 17.627 25.231 18.3242L24.4654 17.2988C26.3247 16.4102 27.6782 14.0996 27.6782 12.0215V10.7227H24.9165V9.64258H31.6294V10.7227H28.9634V12.0215ZM34.2407 8.41211V13.2656H36.2095V14.3594H34.2407V20.6621H32.9419V8.41211H34.2407ZM46.8993 8.41211V20.6895H45.6004V8.41211H46.8993ZM43.1532 9.51953V13.9902H38.7508V16.6699C40.7332 16.6631 42.4696 16.5742 44.5204 16.2324L44.6434 17.2988C42.4696 17.668 40.6239 17.75 38.4637 17.75H37.4246V12.9512H41.827V10.5723H37.411V9.51953H43.1532ZM61.73 8.41211V11.1055H63.5073V12.1855H61.73V14.6328H60.4311V8.41211H61.73ZM58.312 9.20508V14.2363H52.5835V9.20508H58.312ZM53.855 10.2441V13.1973H57.0405V10.2441H53.855ZM54.6069 15.6992V19.2676C55.3247 19.2334 56.1518 19.1309 56.9311 18.8711L57.1225 19.8965C55.9878 20.2793 54.8804 20.334 53.9643 20.334H53.3354V15.6992H54.6069ZM62.8784 15.8359V16.793H56.6987V15.8359H59.1733V14.8105H60.4448V15.8359H62.8784ZM59.7886 17.1895C61.1421 17.2031 62.0991 17.8457 62.0991 18.9121C62.0991 19.9785 61.1421 20.6348 59.7886 20.6348C58.4077 20.6348 57.4643 19.9785 57.478 18.9121C57.4643 17.8457 58.4077 17.2031 59.7886 17.1895ZM59.7886 18.0918C59.105 18.1055 58.6264 18.4062 58.6264 18.9121C58.6264 19.4316 59.105 19.7461 59.7886 19.7461C60.4585 19.7461 60.937 19.4316 60.937 18.9121C60.937 18.4062 60.4585 18.1055 59.7886 18.0918ZM69.7127 8.67188C72.4061 8.67188 74.0877 9.54688 74.0877 11.0234C74.0877 12.4727 72.4061 13.334 69.7127 13.334C67.033 13.334 65.3377 12.4727 65.3377 11.0234C65.3377 9.54688 67.033 8.67188 69.7127 8.67188ZM69.7127 9.69727C67.826 9.69727 66.6639 10.1758 66.6775 11.0234C66.6639 11.8438 67.826 12.3086 69.7127 12.3223C71.5857 12.3086 72.7479 11.8438 72.7479 11.0234C72.7479 10.1758 71.5857 9.69727 69.7127 9.69727ZM73.9373 16.4238V20.5117H65.4744V16.4238H73.9373ZM66.7596 17.4629V19.459H72.6795V17.4629H66.7596ZM75.3045 14.2773V15.3301H64.1346V14.2773H75.3045Z" fill="white"/>
</svg>
