<svg width="88" height="37" viewBox="0 0 88 37" fill="none" xmlns="http://www.w3.org/2000/svg">
<path d="M45.071 36.5754C44.6711 37.1123 43.867 37.1123 43.4671 36.5754L36.9977 27.8903C36.5063 27.2307 36.9771 26.293 37.7997 26.293L50.7384 26.293C51.561 26.293 52.0318 27.2307 51.5404 27.8903L45.071 36.5754Z" fill="#93CF7E"/>
<path d="M0 15C0 6.71573 6.71573 0 15 0H73C81.2843 0 88 6.71573 88 15V15C88 23.2843 81.2843 30 73 30H15C6.71573 30 0 23.2843 0 15V15Z" fill="#93CF7E"/>
<path d="M14.5822 9.28711V11.2422H17.8498V9.28711H19.135V15.3848H13.3107V9.28711H14.5822ZM14.5822 14.3457H17.8498V12.2539H14.5822V14.3457ZM22.8264 8.42578V17.4492H21.5275V8.42578H22.8264ZM23.1271 19.3496V20.4023H14.7463V16.5332H16.0588V19.3496H23.1271ZM28.9634 12.0215C28.9634 13.9629 30.2349 16.123 32.0943 16.998L31.356 18.0098C29.982 17.3467 28.895 15.9658 28.3482 14.3594C27.7808 16.1162 26.6323 17.627 25.231 18.3242L24.4654 17.2988C26.3247 16.4102 27.6782 14.0996 27.6782 12.0215V10.7227H24.9165V9.64258H31.6294V10.7227H28.9634V12.0215ZM34.2407 8.41211V13.2656H36.2095V14.3594H34.2407V20.6621H32.9419V8.41211H34.2407ZM46.8993 8.41211V20.6895H45.6004V8.41211H46.8993ZM43.1532 9.51953V13.9902H38.7508V16.6699C40.7332 16.6631 42.4696 16.5742 44.5204 16.2324L44.6434 17.2988C42.4696 17.668 40.6239 17.75 38.4637 17.75H37.4246V12.9512H41.827V10.5723H37.411V9.51953H43.1532ZM63.2749 14.4141V15.4395H58.3257V16.5605C60.5952 16.6699 61.9077 17.3809 61.9077 18.5977C61.9077 19.9238 60.3491 20.6484 57.6831 20.6348C55.0034 20.6484 53.4311 19.9238 53.4311 18.5977C53.4311 17.3809 54.7505 16.6699 57.0405 16.5605V15.4395H52.105V14.4141H63.2749ZM58.3257 8.39844V9.57422H62.1538V10.6133H58.4077C58.5854 11.7891 60.2671 12.6504 62.6733 12.8418L62.2768 13.8398C60.1577 13.6484 58.4419 12.9375 57.6831 11.7891C56.9175 12.9375 55.2016 13.6484 53.103 13.8398L52.6929 12.8418C55.0923 12.6504 56.7671 11.7891 56.9585 10.6133H53.2261V9.57422H57.0405V8.39844H58.3257ZM57.6831 17.5176C55.7964 17.5176 54.7436 17.9004 54.7436 18.5977C54.7436 19.2949 55.7964 19.6641 57.6831 19.6504C59.5425 19.6641 60.6089 19.2949 60.6089 18.5977C60.6089 17.9004 59.5425 17.5176 57.6831 17.5176ZM75.3318 14.8242V15.8633H70.4646V18.1191H69.1795V15.8633H64.1209V14.8242H75.3318ZM74.0877 19.3496V20.4023H65.5154V17.0527H66.8006V19.3496H74.0877ZM66.8826 8.79492V10.2852H72.5564V8.79492H73.8553V13.7441H65.5975V8.79492H66.8826ZM66.8826 12.7051H72.5564V11.2559H66.8826V12.7051Z" fill="white"/>
</svg>
