<svg width="115" height="37" viewBox="0 0 115 37" fill="none" xmlns="http://www.w3.org/2000/svg">
<path d="M17.561 36.5754C17.1611 37.1123 16.357 37.1123 15.9571 36.5754L9.48769 27.8903C8.99633 27.2307 9.46712 26.293 10.2897 26.293L23.2284 26.293C24.051 26.293 24.5218 27.2307 24.0304 27.8903L17.561 36.5754Z" fill="#DC4965"/>
<path d="M0 15C0 6.71573 6.71573 0 15 0H100C108.284 0 115 6.71573 115 15V15C115 23.2843 108.284 30 100 30H15C6.71573 30 0 23.2843 0 15V15Z" fill="#DC4965"/>
<path d="M14.3786 9.28711V11.2422H17.6462V9.28711H18.9314V15.3848H13.1071V9.28711H14.3786ZM14.3786 14.3457H17.6462V12.2539H14.3786V14.3457ZM22.6228 8.42578V17.4492H21.3239V8.42578H22.6228ZM22.9236 19.3496V20.4023H14.5427V16.5332H15.8552V19.3496H22.9236ZM28.7598 12.0215C28.7598 13.9629 30.0313 16.123 31.8907 16.998L31.1524 18.0098C29.7784 17.3467 28.6914 15.9658 28.1446 14.3594C27.5772 16.1162 26.4287 17.627 25.0274 18.3242L24.2618 17.2988C26.1211 16.4102 27.4746 14.0996 27.4746 12.0215V10.7227H24.7129V9.64258H31.4258V10.7227H28.7598V12.0215ZM34.0371 8.41211V13.2656H36.0059V14.3594H34.0371V20.6621H32.7383V8.41211H34.0371ZM46.6957 8.41211V20.6895H45.3968V8.41211H46.6957ZM42.9496 9.51953V13.9902H38.5472V16.6699C40.5296 16.6631 42.266 16.5742 44.3168 16.2324L44.4398 17.2988C42.266 17.668 40.4203 17.75 38.2601 17.75H37.2211V12.9512H41.6234V10.5723H37.2074V9.51953H42.9496ZM62.1006 8.41211V20.6621H60.8154V14.332H58.0674V13.2656H60.8154V8.41211H62.1006ZM58.1084 9.72461C58.0947 13.2793 56.7139 16.3281 52.5576 18.3926L51.874 17.3672C55.1211 15.7812 56.5635 13.5732 56.7959 10.7637H52.4209V9.72461H58.1084ZM67.9232 9.28711C69.8646 9.27344 71.2454 10.4766 71.2591 12.1992C71.2454 13.9219 69.8646 15.125 67.9232 15.125C65.9954 15.125 64.5736 13.9219 64.5872 12.1992C64.5736 10.4766 65.9954 9.27344 67.9232 9.28711ZM67.9232 10.4082C66.7337 10.4082 65.8587 11.1191 65.8724 12.1992C65.8587 13.2793 66.7337 13.9902 67.9232 13.9902C69.1126 13.9902 69.9876 13.2793 69.9876 12.1992C69.9876 11.1191 69.1126 10.4082 67.9232 10.4082ZM74.0618 8.41211V20.6895H72.763V8.41211H74.0618ZM63.9993 16.9707C66.2279 16.9707 69.3177 16.9434 71.9974 16.5605L72.0931 17.5039C69.3177 18.0371 66.3509 18.0508 64.1634 18.0508L63.9993 16.9707ZM81.9199 15.5898V17.0117H83.8339V15.5898H85.0371V20.5117H80.7031V15.5898H81.9199ZM81.9199 19.5H83.8339V17.9961H81.9199V19.5ZM88.5918 16.5059C88.5918 17.791 89.3027 19.0898 90.8203 19.623L90.1504 20.6074C89.0429 20.1836 88.3252 19.3838 87.9492 18.4062C87.539 19.3633 86.8144 20.1699 85.7617 20.6074L85.1054 19.623C86.582 19.0215 87.3066 17.7227 87.3066 16.5059V15.5078H88.5918V16.5059ZM82.6992 8.93164C84.3125 8.93164 85.5566 9.84766 85.83 11.2148H88.2226V8.41211H89.5214V14.9062H88.2226V12.2812H85.8437C85.5771 13.6895 84.3261 14.6055 82.6992 14.6055C80.8261 14.6055 79.4863 13.457 79.4863 11.7617C79.4863 10.0938 80.8261 8.93164 82.6992 8.93164ZM82.6992 10.0117C81.5371 10.0117 80.7304 10.7227 80.7304 11.7617C80.7304 12.8145 81.5371 13.5391 82.6992 13.5527C83.8339 13.5391 84.6406 12.8145 84.6406 11.7617C84.6406 10.7227 83.8339 10.0117 82.6992 10.0117ZM96.9163 8.67188C99.6096 8.67188 101.291 9.54688 101.291 11.0234C101.291 12.4727 99.6096 13.334 96.9163 13.334C94.2366 13.334 92.5413 12.4727 92.5413 11.0234C92.5413 9.54688 94.2366 8.67188 96.9163 8.67188ZM96.9163 9.69727C95.0296 9.69727 93.8675 10.1758 93.8811 11.0234C93.8675 11.8438 95.0296 12.3086 96.9163 12.3223C98.7893 12.3086 99.9514 11.8438 99.9514 11.0234C99.9514 10.1758 98.7893 9.69727 96.9163 9.69727ZM101.141 16.4238V20.5117H92.678V16.4238H101.141ZM93.9632 17.4629V19.459H99.8831V17.4629H93.9632ZM102.508 14.2773V15.3301H91.3382V14.2773H102.508Z" fill="white"/>
</svg>
