<svg width="24" height="22" viewBox="0 0 24 22" fill="none" xmlns="http://www.w3.org/2000/svg">
<path d="M15.3942 5.82827L14.3776 2.69959C13.6293 0.396316 10.3707 0.39632 9.62236 2.6996L8.60579 5.82827C8.40498 6.4463 7.82904 6.86475 7.1792 6.86475H3.88952C1.46771 6.86475 0.460775 9.96379 2.42006 11.3873L5.08147 13.3209C5.6072 13.7029 5.82719 14.3799 5.62637 14.998L4.60981 18.1266C3.86143 20.4299 6.49763 22.3452 8.45691 20.9217L11.1183 18.9881C11.6441 18.6061 12.3559 18.6061 12.8817 18.9881L15.5431 20.9217C17.5024 22.3452 20.1386 20.4299 19.3902 18.1266L18.3736 14.998C18.1728 14.3799 18.3928 13.7029 18.9185 13.3209L21.5799 11.3873C23.5392 9.96378 22.5323 6.86475 20.1105 6.86475H16.8208C16.171 6.86475 15.595 6.4463 15.3942 5.82827Z" stroke="#BDC2C6"/>
</svg>
