<svg width="71" height="140" viewBox="0 0 71 140" fill="none" xmlns="http://www.w3.org/2000/svg">
<rect x="0.862305" y="53.6431" width="69.2755" height="86.3571" rx="5" fill="#E9EBED"/>
<rect x="7.50513" y="62.1836" width="55.9898" height="70.2245" rx="3" fill="white"/>
<path d="M18.769 52.5793C18.8499 52.0978 19.2668 51.7451 19.7551 51.7451L51.2448 51.7451C51.7331 51.7451 52.15 52.0978 52.231 52.5793L53.8091 61.9671C53.9116 62.577 53.4414 63.1329 52.8229 63.1329H18.177C17.5585 63.1329 17.0883 62.577 17.1908 61.9671L18.769 52.5793Z" fill="#CACDD2"/>
<path fill-rule="evenodd" clip-rule="evenodd" d="M29.8987 47C29.2748 47 28.8033 47.565 28.9148 48.1788L29.9312 53.7707C30.0177 54.2462 30.4318 54.5918 30.9151 54.5918H40.9753C41.4586 54.5918 41.8728 54.2462 41.9592 53.7707L42.9756 48.1788C43.0872 47.565 42.6156 47 41.9917 47H29.8987ZM32.7753 50.036C32.4523 50.036 32.214 50.3378 32.289 50.652L32.7749 52.6888C32.8286 52.9139 33.0298 53.0727 33.2612 53.0727H38.6297C38.8611 53.0727 39.0623 52.9139 39.116 52.6888L39.6019 50.652C39.6769 50.3378 39.4386 50.036 39.1156 50.036H32.7753Z" fill="#CACDD2"/>
<rect x="15.0969" y="71.6733" width="40.8061" height="12.3367" rx="2" fill="#F1F1F1"/>
<rect x="15.0969" y="89.7041" width="40.8061" height="11.3878" rx="2" fill="#F1F1F1"/>
<rect x="15.0969" y="106.786" width="40.8061" height="11.3878" rx="2" fill="#F1F1F1"/>
<path fill-rule="evenodd" clip-rule="evenodd" d="M13 0C8.02944 0 4 4.02944 4 9V20C4 24.9706 8.02944 29 13 29H28.7043L31.9777 34.0832C33.159 35.9176 35.841 35.9176 37.0223 34.0832L40.2957 29H57C61.9706 29 66 24.9706 66 20V9C66 4.02944 61.9706 0 57 0H13Z" fill="#CACDD2"/>
<circle cx="20.5" cy="14.5" r="3.5" fill="white"/>
<circle cx="34.5" cy="14.5" r="3.5" fill="white"/>
<circle cx="48.5" cy="14.5" r="3.5" fill="white"/>
</svg>
