<svg width="100" height="100" viewBox="0 0 100 100" fill="none" xmlns="http://www.w3.org/2000/svg">
<path d="M65.4688 19.8751H55.4123C54.1656 18.4793 52.6382 17.3625 50.93 16.5979C49.2219 15.8332 47.3715 15.438 45.5 15.438C43.6285 15.438 41.7781 15.8332 40.07 16.5979C38.3618 17.3625 36.8344 18.4793 35.5877 19.8751H25.5312C24.3544 19.8751 23.2257 20.3426 22.3935 21.1748C21.5613 22.007 21.0938 23.1357 21.0938 24.3126V70.9063C21.0938 72.0832 21.5613 73.2119 22.3935 74.0441C23.2257 74.8763 24.3544 75.3438 25.5312 75.3438H65.4688C66.6456 75.3438 67.7743 74.8763 68.6065 74.0441C69.4387 73.2119 69.9062 72.0832 69.9062 70.9063V24.3126C69.9062 23.1357 69.4387 22.007 68.6065 21.1748C67.7743 20.3426 66.6456 19.8751 65.4688 19.8751ZM45.5 19.8751C47.8538 19.8751 50.1112 20.8101 51.7756 22.4745C53.44 24.1389 54.375 26.3963 54.375 28.7501H36.625C36.625 26.3963 37.56 24.1389 39.2244 22.4745C40.8888 20.8101 43.1462 19.8751 45.5 19.8751ZM54.375 55.3751H36.625C36.0366 55.3751 35.4722 55.1413 35.0561 54.7252C34.64 54.3091 34.4062 53.7448 34.4062 53.1563C34.4062 52.5679 34.64 52.0035 35.0561 51.5874C35.4722 51.1713 36.0366 50.9376 36.625 50.9376H54.375C54.9634 50.9376 55.5278 51.1713 55.9439 51.5874C56.36 52.0035 56.5938 52.5679 56.5938 53.1563C56.5938 53.7448 56.36 54.3091 55.9439 54.7252C55.5278 55.1413 54.9634 55.3751 54.375 55.3751ZM54.375 46.5001H36.625C36.0366 46.5001 35.4722 46.2663 35.0561 45.8502C34.64 45.4341 34.4062 44.8698 34.4062 44.2813C34.4062 43.6929 34.64 43.1285 35.0561 42.7124C35.4722 42.2963 36.0366 42.0626 36.625 42.0626H54.375C54.9634 42.0626 55.5278 42.2963 55.9439 42.7124C56.36 43.1285 56.5938 43.6929 56.5938 44.2813C56.5938 44.8698 56.36 45.4341 55.9439 45.8502C55.5278 46.2663 54.9634 46.5001 54.375 46.5001Z" fill="#DADDE1"/>
<path d="M88.1836 90.3278L88.3604 90.151L88.1836 90.3278C88.39 90.5341 88.6349 90.6978 88.9046 90.8095C89.1742 90.9212 89.4631 90.9786 89.7549 90.9786C90.0468 90.9786 90.3357 90.9212 90.6053 90.8095C90.8749 90.6978 91.1199 90.5341 91.3262 90.3278C91.5326 90.1214 91.6963 89.8765 91.808 89.6068C91.9196 89.3372 91.9771 89.0483 91.9771 88.7565C91.9771 88.4646 91.9196 88.1757 91.808 87.9061C91.6963 87.6365 91.5326 87.3915 91.3262 87.1852L91.3137 87.1726L91.3071 87.1677L83.6822 79.5396C85.9657 76.4743 87.0262 72.6652 86.6511 68.856C86.2689 64.9741 84.4243 61.3828 81.4916 58.8108C78.559 56.2388 74.7577 54.8787 70.8591 55.0063C66.9604 55.1339 63.2563 56.7397 60.498 59.4979C57.7398 62.2561 56.134 65.9603 56.0064 69.859C55.8788 73.7576 57.239 77.5588 59.811 80.4915C62.3829 83.4242 65.9742 85.2688 69.8561 85.651C73.6653 86.0261 77.4744 84.9656 80.5396 82.6822L88.1836 90.3278ZM60.4688 70.3746C60.4688 68.2177 61.1085 66.1092 62.3068 64.3157C63.5052 62.5222 65.2085 61.1243 67.2014 60.2988C69.1942 59.4734 71.3871 59.2574 73.5027 59.6782C75.6183 60.099 77.5616 61.1377 79.0869 62.663C80.6122 64.1883 81.6509 66.1316 82.0717 68.2472C82.4925 70.3628 82.2765 72.5557 81.4511 74.5485C80.6256 76.5414 79.2277 78.2447 77.4342 79.4431C75.6408 80.6415 73.5322 81.2811 71.3753 81.2811C68.4836 81.2782 65.7112 80.1281 63.6665 78.0834C61.6218 76.0387 60.4717 73.2663 60.4688 70.3746Z" fill="#7E858D" stroke="#7E858D" stroke-width="0.5"/>
</svg>
