<svg width="104" height="104" viewBox="0 0 104 104" fill="none" xmlns="http://www.w3.org/2000/svg">
<path d="M96.2 76.4113L60.6734 14.7142C59.7856 13.2026 58.5182 11.9493 56.9969 11.0785C55.4755 10.2076 53.7529 9.74951 52 9.74951C50.247 9.74951 48.5244 10.2076 47.0031 11.0785C45.4817 11.9493 44.2143 13.2026 43.3265 14.7142L7.79996 76.4113C6.94577 77.8734 6.49561 79.5362 6.49561 81.2295C6.49561 82.9227 6.94577 84.5856 7.79996 86.0476C8.67637 87.5683 9.94159 88.8284 11.4658 89.6987C12.99 90.5689 14.7183 91.018 16.4734 90.9998H87.5265C89.2802 91.0166 91.0068 90.5668 92.5295 89.6966C94.0522 88.8264 95.3161 87.5671 96.1918 86.0476C97.0473 84.5863 97.4988 82.9238 97.5003 81.2306C97.5017 79.5373 97.0529 77.8741 96.2 76.4113ZM48.75 42.2498C48.75 41.3878 49.0924 40.5612 49.7019 39.9517C50.3114 39.3422 51.138 38.9998 52 38.9998C52.8619 38.9998 53.6886 39.3422 54.2981 39.9517C54.9076 40.5612 55.25 41.3878 55.25 42.2498V58.4998C55.25 59.3617 54.9076 60.1884 54.2981 60.7979C53.6886 61.4074 52.8619 61.7498 52 61.7498C51.138 61.7498 50.3114 61.4074 49.7019 60.7979C49.0924 60.1884 48.75 59.3617 48.75 58.4998V42.2498ZM52 77.9998C51.0358 77.9998 50.0932 77.7139 49.2916 77.1782C48.4899 76.6425 47.865 75.8811 47.496 74.9904C47.1271 74.0996 47.0305 73.1194 47.2186 72.1737C47.4067 71.2281 47.871 70.3594 48.5528 69.6776C49.2346 68.9959 50.1032 68.5316 51.0489 68.3434C51.9945 68.1553 52.9748 68.2519 53.8655 68.6209C54.7563 68.9898 55.5177 69.6147 56.0534 70.4164C56.589 71.2181 56.875 72.1606 56.875 73.1248C56.875 74.4177 56.3613 75.6577 55.4471 76.5719C54.5329 77.4862 53.2929 77.9998 52 77.9998Z" fill="#CACDD2"/>
</svg>
