<svg width="104" height="28" viewBox="0 0 104 28" fill="none" xmlns="http://www.w3.org/2000/svg">
<path d="M6 12.5C6 5.59644 11.5964 0 18.5 0H85.5C92.4036 0 98 5.59644 98 12.5V12.5C98 19.4036 92.4036 25 85.5 25H18.5C11.5964 25 6 19.4036 6 12.5V12.5Z" fill="#FFF0F3"/>
<path d="M16.666 8.73438C17.9746 8.73438 18.9023 9.92578 18.9121 11.8008C18.9023 13.6855 17.9746 14.877 16.666 14.877C15.3574 14.877 14.4199 13.6855 14.4297 11.8008C14.4199 9.92578 15.3574 8.73438 16.666 8.73438ZM16.666 9.56445C15.8652 9.56445 15.3184 10.4238 15.3184 11.8008C15.3184 13.1875 15.8652 14.0469 16.666 14.0469C17.4766 14.0469 18.0234 13.1875 18.0234 11.8008C18.0234 10.4238 17.4766 9.56445 16.666 9.56445ZM21.1387 8.08008V11.5078H22.5449V12.2891H21.1387V16.8301H20.2109V8.08008H21.1387ZM26.207 9.65234C26.207 10.7754 27.0469 11.8496 28.3945 12.2793L27.916 13.002C26.9102 12.6699 26.1484 11.9766 25.7578 11.0977C25.3623 12.0498 24.5859 12.8018 23.541 13.168L23.0625 12.4551C24.4199 11.9863 25.2598 10.8438 25.2695 9.65234V9.4082H23.3066V8.65625H28.1309V9.4082H26.207V9.65234ZM30.2207 8.08008V13.3633H29.293V8.08008H30.2207ZM30.2207 13.8027V16.8301H29.293V14.5547H24.293V13.8027H30.2207ZM41.3535 8.08008V16.8496H40.4258V11.6641H37.8184V10.9023H40.4258V8.08008H41.3535ZM35.4551 9.04688V13.9688C36.7051 13.9492 37.8867 13.876 39.1562 13.6172L39.2734 14.3789C37.8672 14.6719 36.5977 14.7402 35.2207 14.7402H34.5176V9.04688H35.4551ZM50.6895 13.0996V13.8516H47.1152V16.8203H46.207V13.8516H42.6816V13.0996H50.6895ZM49.6836 8.54883V11.9863H43.6875V8.54883H49.6836ZM44.5957 9.29102V11.2637H48.7559V9.29102H44.5957ZM61.7832 14.9746V15.7363H53.7754V14.9746H57.3105V12.9043H58.2383V14.9746H61.7832ZM58.248 9.67188C58.248 11.0098 59.7617 12.2012 61.4316 12.4648L61.0605 13.1973C59.6494 12.9287 58.3457 12.1084 57.7793 10.9609C57.208 12.123 55.9141 12.9678 54.5273 13.2363L54.1465 12.5039C55.7773 12.2305 57.2812 11.0098 57.2812 9.67188V9.59375H54.4395V8.83203H61.0898V9.59375H58.248V9.67188ZM69.3516 8.96875V9.90625C69.3516 11.0391 69.3516 12.2695 69.0293 14.1348L68.082 14.0469C68.4336 12.2988 68.4336 11.0098 68.4336 9.90625V9.73047H63.2773V8.96875H69.3516ZM70.3965 14.8184V15.5898H62.418V14.8184H70.3965ZM78.5898 8.08008V16.8301H77.7012V12.2695H76.6172V16.4004H75.7383V8.24609H76.6172V11.5078H77.7012V8.08008H78.5898ZM74.752 9.06641V14.5254H71.3535V9.06641H74.752ZM72.2324 9.79883V13.7832H73.8828V9.79883H72.2324ZM83.1406 16.0684C82.7598 16.0684 82.4375 15.7559 82.4473 15.375C82.4375 14.9941 82.7598 14.6816 83.1406 14.6816C83.5117 14.6816 83.834 14.9941 83.834 15.375C83.834 15.7559 83.5117 16.0684 83.1406 16.0684ZM85.7773 16.0684C85.3965 16.0684 85.0742 15.7559 85.084 15.375C85.0742 14.9941 85.3965 14.6816 85.7773 14.6816C86.1484 14.6816 86.4707 14.9941 86.4707 15.375C86.4707 15.7559 86.1484 16.0684 85.7773 16.0684ZM88.4141 16.0684C88.0332 16.0684 87.7109 15.7559 87.7207 15.375C87.7109 14.9941 88.0332 14.6816 88.4141 14.6816C88.7852 14.6816 89.1074 14.9941 89.1074 15.375C89.1074 15.7559 88.7852 16.0684 88.4141 16.0684Z" fill="black"/>
<path d="M51.5 28C53.3082 28 55 25 55 25H48C48 25 49.6918 28 51.5 28Z" fill="#FFF0F3"/>
</svg>
