<svg width="104" height="28" viewBox="0 0 104 28" fill="none" xmlns="http://www.w3.org/2000/svg">
<g clip-path="url(#clip0_2503_4645)">
<path d="M0 12.5C0 5.59644 5.59644 0 12.5 0H91.5C98.4036 0 104 5.59644 104 12.5V12.5C104 19.4036 98.4036 25 91.5 25H12.5C5.59644 25 0 19.4036 0 12.5V12.5Z" fill="#FFF0F3"/>
<path d="M16.3203 13.334V14.0957H12.7656V16.8301H11.8477V14.0957H8.3125V13.334H16.3203ZM15.4316 11.7812V12.5234H9.36719V8.4707H15.334V9.21289H10.2754V10.1113H15.1387V10.834H10.2754V11.7812H15.4316ZM24.9727 15.0332V15.7949H16.9648V15.0332H19.1133V13.0898H17.668V12.3379H18.9766V9.61328H17.6484V8.85156H24.2402V9.61328H22.9023V12.3379H24.2109V13.0898H22.7754V15.0332H24.9727ZM19.8945 12.3379H21.9941V9.61328H19.8945V12.3379ZM20.041 15.0332H21.8477V13.0898H20.041V15.0332ZM32.4238 8.08008V11.625H33.8301V12.3965H32.4238V16.8301H31.5059V8.08008H32.4238ZM30.7441 9.44727V10.209H25.5586V9.44727H27.7168V8.19727H28.6445V9.44727H30.7441ZM28.1855 10.8535C29.4355 10.8535 30.3535 11.6934 30.3633 12.8848C30.3535 14.0859 29.4355 14.916 28.1855 14.9258C26.9258 14.916 26.0078 14.0859 26.0078 12.8848C26.0078 11.6934 26.9258 10.8535 28.1855 10.8535ZM28.1855 11.6152C27.4434 11.6152 26.8867 12.1328 26.8965 12.8848C26.8867 13.6465 27.4434 14.1543 28.1855 14.1445C28.9277 14.1543 29.4746 13.6465 29.4746 12.8848C29.4746 12.1328 28.9277 11.6152 28.1855 11.6152ZM41.3301 8.91992V9.7793C41.3301 10.8633 41.3301 12.0742 40.998 13.8613L40.0605 13.7637C40.4023 12.0742 40.4023 10.834 40.4023 9.7793V9.67188H35.0898V8.91992H41.3301ZM42.2285 14.877V15.6484H34.25V14.877H37.2871V11.791H38.2051V14.877H42.2285ZM48.0781 8.82227C48.0781 9.48145 48.4932 10.2969 49.3184 10.7754C50.1387 10.3018 50.5391 9.50586 50.5391 8.82227V8.26562H51.4766V8.82227C51.4766 9.67188 52.0137 10.5312 53.127 10.8828L52.6973 11.5762C51.8574 11.2881 51.3008 10.7266 51.0078 10.0527C50.7246 10.751 50.1729 11.376 49.3184 11.6836C48.459 11.3662 47.9072 10.7266 47.6289 10.0234C47.3311 10.6875 46.7842 11.2686 45.959 11.5664L45.5 10.8828C46.6035 10.502 47.1602 9.59375 47.1602 8.82227V8.26562H48.0781V8.82227ZM53.332 12.1426V12.8945H49.7773V13.998H52.3262V16.8301H51.3887V14.7402H46.2031V13.998H48.8594V12.8945H45.334V12.1426H53.332ZM56.7207 8.82227C56.7207 9.48145 57.1357 10.2969 57.9609 10.7754C58.7812 10.3018 59.1816 9.50586 59.1816 8.82227V8.26562H60.1191V8.82227C60.1191 9.67188 60.6562 10.5312 61.7695 10.8828L61.3398 11.5762C60.5 11.2881 59.9434 10.7266 59.6504 10.0527C59.3672 10.751 58.8154 11.376 57.9609 11.6836C57.1016 11.3662 56.5498 10.7266 56.2715 10.0234C55.9736 10.6875 55.4268 11.2686 54.6016 11.5664L54.1426 10.8828C55.2461 10.502 55.8027 9.59375 55.8027 8.82227V8.26562H56.7207V8.82227ZM61.9746 12.1426V12.8945H58.4199V13.998H60.9688V16.8301H60.0312V14.7402H54.8457V13.998H57.502V12.8945H53.9766V12.1426H61.9746ZM72.1016 8.92969V9.99414C72.1016 11.2734 72.1016 12.4746 71.7207 14.291L70.8027 14.2031C70.9883 13.4023 71.0859 12.6992 71.1348 12.0449L65.8809 12.3281L65.7637 11.5664L71.1836 11.3613C71.1982 10.8926 71.1982 10.4434 71.2031 9.99414V9.69141H66.0078V8.92969H72.1016ZM73.0391 14.8965V15.6582H65.0605V14.8965H73.0391ZM80.7832 10.6387V11.3809H74.7578V8.39258H75.6758V10.6387H80.7832ZM81.7012 12.4844V13.2266H73.6934V12.4844H81.7012ZM80.8418 15.8633V16.625H74.6895V14.0566H75.6172V15.8633H80.8418ZM92.7656 12.1328V12.8848H89.2305V13.7246C90.8369 13.8125 91.7891 14.3545 91.7891 15.2676C91.7891 16.2637 90.6562 16.8203 88.7715 16.8105C86.8672 16.8203 85.7344 16.2637 85.7344 15.2676C85.7344 14.3545 86.6865 13.8125 88.3125 13.7246V12.8848H84.7871V12.1328H92.7656ZM88.7715 14.4277C87.4336 14.4277 86.6719 14.7305 86.6719 15.2676C86.6719 15.7949 87.4336 16.1074 88.7715 16.0977C90.0898 16.1074 90.8613 15.7949 90.8613 15.2676C90.8613 14.7305 90.0898 14.4277 88.7715 14.4277ZM92.0527 8.48047V9.22266H89.3965C89.5283 10.0674 90.7588 10.7852 92.3555 10.9414L92.0234 11.6738C90.5098 11.498 89.2549 10.8584 88.7812 9.92578C88.293 10.8584 87.043 11.498 85.5293 11.6738L85.207 10.9414C86.7793 10.7852 88.0146 10.0674 88.1465 9.22266H85.5195V8.48047H92.0527ZM95.041 8.92969L94.9531 13.959H93.9863L93.8984 8.92969H95.041ZM94.4746 16.0684C94.0938 16.0684 93.7715 15.7559 93.7812 15.375C93.7715 14.9941 94.0938 14.6816 94.4746 14.6816C94.8457 14.6816 95.168 14.9941 95.168 15.375C95.168 15.7559 94.8457 16.0684 94.4746 16.0684Z" fill="black"/>
<path d="M51.5 28C53.3082 28 55 25 55 25H48C48 25 49.6918 28 51.5 28Z" fill="#FFF0F3"/>
</g>
<defs>
<clipPath id="clip0_2503_4645">
<rect width="104" height="28" fill="white"/>
</clipPath>
</defs>
</svg>
