<svg width="104" height="28" viewBox="0 0 104 28" fill="none" xmlns="http://www.w3.org/2000/svg">
<path d="M8 12.5C8 5.59644 13.5964 0 20.5 0H84.5C91.4036 0 97 5.59644 97 12.5V12.5C97 19.4036 91.4036 25 84.5 25H20.5C13.5964 25 8 19.4036 8 12.5V12.5Z" fill="#FFF0F3"/>
<path d="M23.627 8.08008V16.8496H22.6992V11.9863H20.8926V11.2246H22.6992V8.08008H23.627ZM19.4473 10.541C19.4473 12.0254 20.375 13.6172 21.7227 14.2129L21.166 14.9551C20.1553 14.4668 19.374 13.4463 18.9883 12.25C18.5977 13.5244 17.8018 14.6133 16.791 15.1309L16.2246 14.4082C17.5625 13.7734 18.5 12.1133 18.5098 10.541V9.7207H16.5762V8.95898H21.3906V9.7207H19.4473V10.541ZM32.0547 12.1133V12.8555H29.4082V14.9941H32.9727V15.7559H24.9648V14.9941H28.4902V12.8555H25.9609V8.75391H31.9766V9.50586H26.8887V12.1133H32.0547ZM44.0469 13.334V14.0957H40.4922V16.8301H39.5742V14.0957H36.0391V13.334H44.0469ZM43.1582 11.7812V12.5234H37.0938V8.4707H43.0605V9.21289H38.002V10.1113H42.8652V10.834H38.002V11.7812H43.1582ZM52.6992 15.0332V15.7949H44.6914V15.0332H46.8398V13.0898H45.3945V12.3379H46.7031V9.61328H45.375V8.85156H51.9668V9.61328H50.6289V12.3379H51.9375V13.0898H50.502V15.0332H52.6992ZM47.6211 12.3379H49.7207V9.61328H47.6211V12.3379ZM47.7676 15.0332H49.5742V13.0898H47.7676V15.0332ZM60.209 8.05078V10.1016H61.4883V10.8633H60.209V12.8652H59.2812V8.05078H60.209ZM60.209 13.2754V15.3066H55.4824V16.0391H60.5117V16.7422H54.5742V14.6523H59.291V13.9688H54.5547V13.2754H60.209ZM58.5586 8.82227V9.55469H53.3438V8.82227H55.4922V8.00195H56.4199V8.82227H58.5586ZM55.9512 9.88672C57.2305 9.88672 58.0703 10.4336 58.0703 11.3223C58.0703 12.2109 57.2305 12.748 55.9512 12.748C54.6621 12.748 53.8223 12.2109 53.8223 11.3223C53.8223 10.4336 54.6621 9.88672 55.9512 9.88672ZM55.9512 10.5508C55.1992 10.5508 54.7109 10.8535 54.7207 11.3223C54.7109 11.791 55.1992 12.0742 55.9512 12.0742C56.7031 12.0742 57.1914 11.791 57.2012 11.3223C57.1914 10.8535 56.7031 10.5508 55.9512 10.5508ZM65.5508 8.99805V12.1621H63.1484V14.0078C64.1006 14.0029 64.999 13.959 66.0488 13.793L66.127 14.5352C64.9062 14.75 63.9395 14.7793 62.8457 14.7891H62.25V11.4004H64.6523V9.75977H62.2402V8.99805H65.5508ZM69.4863 8.08008V16.8301H68.5977V12.2402H67.4648V16.3809H66.6152V8.25586H67.4648V11.4883H68.5977V8.08008H69.4863ZM78.627 14.9648V15.7363H70.6191V14.9648H72.5332V12.6797C71.8154 12.2842 71.3809 11.6543 71.3809 10.873C71.3809 9.49609 72.7285 8.58789 74.6035 8.58789C76.4883 8.58789 77.8359 9.49609 77.8359 10.873C77.8359 11.6445 77.416 12.2646 76.7129 12.6602V14.9648H78.627ZM74.6035 9.33008C73.2266 9.33008 72.2793 9.92578 72.2793 10.873C72.2793 11.8105 73.2266 12.4258 74.6035 12.4258C75.9707 12.4258 76.9375 11.8105 76.9375 10.873C76.9375 9.92578 75.9707 9.33008 74.6035 9.33008ZM73.4512 14.9648H75.7754V13.0117C75.4189 13.1045 75.0234 13.1484 74.6035 13.1484C74.1934 13.1484 73.8027 13.1045 73.4512 13.0215V14.9648ZM79.877 12.2793C80.1992 11.918 80.5996 11.7324 81.0391 11.7324C81.8008 11.7324 82.4746 12.2891 83.2168 12.2891C83.666 12.2891 84.0566 12.0938 84.3594 11.7031V12.6406C84.0273 13.002 83.6367 13.1875 83.1973 13.1875C82.4355 13.1875 81.752 12.6309 81.0098 12.6309C80.5703 12.6309 80.1895 12.8262 79.877 13.2168V12.2793ZM87.2305 8.92969L87.1426 13.959H86.1758L86.0879 8.92969H87.2305ZM86.6641 16.0684C86.2832 16.0684 85.9609 15.7559 85.9707 15.375C85.9609 14.9941 86.2832 14.6816 86.6641 14.6816C87.0352 14.6816 87.3574 14.9941 87.3574 15.375C87.3574 15.7559 87.0352 16.0684 86.6641 16.0684Z" fill="black"/>
<path d="M52.5 28C54.3082 28 56 25 56 25H49C49 25 50.6918 28 52.5 28Z" fill="#FFF0F3"/>
</svg>
