<svg width="104" height="28" viewBox="0 0 104 28" fill="none" xmlns="http://www.w3.org/2000/svg">
<path d="M25 12.5C25 5.59644 30.5964 0 37.5 0H67.5C74.4036 0 80 5.59644 80 12.5V12.5C80 19.4036 74.4036 25 67.5 25H37.5C30.5964 25 25 19.4036 25 12.5V12.5Z" fill="#FFF0F3"/>
<path d="M37.2676 13.5781C39.1621 13.5781 40.3535 14.1738 40.3633 15.1992C40.3535 16.2148 39.1621 16.8203 37.2676 16.8105C35.3926 16.8203 34.1914 16.2148 34.1914 15.1992C34.1914 14.1738 35.3926 13.5781 37.2676 13.5781ZM37.2676 14.2812C35.9395 14.2812 35.1094 14.623 35.1191 15.1992C35.1094 15.7656 35.9395 16.0977 37.2676 16.0977C38.6055 16.0977 39.4355 15.7656 39.4453 15.1992C39.4355 14.623 38.6055 14.2812 37.2676 14.2812ZM40.2949 8.50977V9.24219C40.2949 9.94531 40.2949 10.668 40.0508 11.5664L39.1426 11.4688C39.377 10.5752 39.377 9.93066 39.377 9.25195H34.2598V8.50977H40.2949ZM41.291 12.1035V12.8555H33.332V12.1035H36.5254V10.4629H37.4336V12.1035H41.291ZM49.9629 13.2266V13.959H46.3887V16.8301H45.4805V13.959H41.9551V13.2266H49.9629ZM43.8691 8.43164V9.57422H48.0293V8.43164H48.957V12.2305H42.9512V8.43164H43.8691ZM43.8691 11.4883H48.0293V10.3164H43.8691V11.4883ZM61.0273 12.1328V12.8848H57.4922V13.7246C59.0986 13.8125 60.0508 14.3545 60.0508 15.2676C60.0508 16.2637 58.918 16.8203 57.0332 16.8105C55.1289 16.8203 53.9961 16.2637 53.9961 15.2676C53.9961 14.3545 54.9482 13.8125 56.5742 13.7246V12.8848H53.0488V12.1328H61.0273ZM57.0332 14.4277C55.6953 14.4277 54.9336 14.7305 54.9336 15.2676C54.9336 15.7949 55.6953 16.1074 57.0332 16.0977C58.3516 16.1074 59.123 15.7949 59.123 15.2676C59.123 14.7305 58.3516 14.4277 57.0332 14.4277ZM60.3145 8.48047V9.22266H57.6582C57.79 10.0674 59.0205 10.7852 60.6172 10.9414L60.2852 11.6738C58.7715 11.498 57.5166 10.8584 57.043 9.92578C56.5547 10.8584 55.3047 11.498 53.791 11.6738L53.4688 10.9414C55.041 10.7852 56.2764 10.0674 56.4082 9.22266H53.7812V8.48047H60.3145ZM65.1289 16.0684C64.748 16.0684 64.4258 15.7559 64.4355 15.375C64.4258 14.9941 64.748 14.6816 65.1289 14.6816C65.5 14.6816 65.8223 14.9941 65.8223 15.375C65.8223 15.7559 65.5 16.0684 65.1289 16.0684ZM67.7656 16.0684C67.3848 16.0684 67.0625 15.7559 67.0723 15.375C67.0625 14.9941 67.3848 14.6816 67.7656 14.6816C68.1367 14.6816 68.459 14.9941 68.459 15.375C68.459 15.7559 68.1367 16.0684 67.7656 16.0684ZM70.4023 16.0684C70.0215 16.0684 69.6992 15.7559 69.709 15.375C69.6992 14.9941 70.0215 14.6816 70.4023 14.6816C70.7734 14.6816 71.0957 14.9941 71.0957 15.375C71.0957 15.7559 70.7734 16.0684 70.4023 16.0684Z" fill="black"/>
<path d="M52.5 28C54.3082 28 56 25 56 25H49C49 25 50.6918 28 52.5 28Z" fill="#FFF0F3"/>
</svg>
