<svg width="104" height="28" viewBox="0 0 104 28" fill="none" xmlns="http://www.w3.org/2000/svg">
<path d="M14 12.5C14 5.59644 19.5964 0 26.5 0H77.5C84.4036 0 90 5.59644 90 12.5V12.5C90 19.4036 84.4036 25 77.5 25H26.5C19.5964 25 14 19.4036 14 12.5V12.5Z" fill="#FFF0F3"/>
<path d="M29.5684 8.08008V16.8496H28.6406V8.08008H29.5684ZM24.8906 8.73438C26.1895 8.73438 27.1465 9.92578 27.1465 11.8008C27.1465 13.6855 26.1895 14.877 24.8906 14.877C23.5723 14.877 22.625 13.6855 22.625 11.8008C22.625 9.92578 23.5723 8.73438 24.8906 8.73438ZM24.8906 9.56445C24.0801 9.56445 23.5234 10.4238 23.5234 11.8008C23.5234 13.1875 24.0801 14.0469 24.8906 14.0469C25.6914 14.0469 26.248 13.1875 26.248 11.8008C26.248 10.4238 25.6914 9.56445 24.8906 9.56445ZM38.4746 8.08008V16.8301H37.5859V8.08008H38.4746ZM36.6973 8.26562V16.3906H35.8184V11.9375H34.4609V11.1758H35.8184V8.26562H36.6973ZM33.6016 10.5215C33.6016 12.0156 34.207 13.5098 35.4375 14.2227L34.8809 14.9062C34.0459 14.4082 33.4697 13.5244 33.1719 12.4648C32.8545 13.6074 32.2588 14.5791 31.4043 15.1113L30.8379 14.418C32.0781 13.666 32.7129 12.0742 32.7129 10.5215V9.81836H31.1016V9.06641H35.1055V9.81836H33.6016V10.5215ZM48.8652 8.08008V11.4688H50.2715V12.2305H48.8652V16.8496H47.9375V8.08008H48.8652ZM46.5117 8.91992V9.67188H43.3477V13.9004C44.8174 13.8955 45.9209 13.832 47.166 13.6074L47.2832 14.3887C45.916 14.6328 44.7539 14.6816 43.123 14.6719H42.4199V8.91992H46.5117ZM57.7129 8.56836C57.7129 10.834 56.4727 12.4453 53.709 13.2949L53.3379 12.543C54.7051 12.1475 55.6133 11.5664 56.1504 10.8438L53.4551 11.0488L53.3086 10.2969L56.5215 10.1602C56.6289 9.89648 56.6924 9.61328 56.7266 9.32031H53.748V8.56836H57.7129ZM60.4277 8.08008V13.3145H59.5V11.1367H57.7129V10.3652H59.5V8.08008H60.4277ZM56.248 13.9883C56.248 14.7207 56.6143 15.502 57.4102 15.9707C58.2012 15.458 58.5918 14.6377 58.5918 13.9883V13.5879H59.5V13.9883C59.5 14.8672 60.1152 15.7461 61.2578 16.0879L60.7988 16.7812C59.9297 16.4932 59.3389 15.9072 59.041 15.1895C58.7627 15.8877 58.2354 16.5322 57.4102 16.8594C56.585 16.5518 56.0576 15.9414 55.7891 15.2285C55.4766 15.917 54.8955 16.4883 54.0703 16.7812L53.6211 16.0879C54.7344 15.707 55.3496 14.8086 55.3594 13.9883V13.5879H56.248V13.9883ZM64.1484 8.73438C65.335 8.73438 66.2041 9.74023 66.3457 11.3613H68.1523V8.08008H69.0703V16.8496H68.1523V12.1133H66.3555C66.2529 13.8174 65.3643 14.877 64.1484 14.877C62.8398 14.877 61.9219 13.6855 61.9316 11.8008C61.9219 9.92578 62.8398 8.73438 64.1484 8.73438ZM64.1484 9.56445C63.3574 9.56445 62.8105 10.4238 62.8105 11.8008C62.8105 13.1875 63.3574 14.0469 64.1484 14.0469C64.9395 14.0469 65.4863 13.1875 65.4863 11.8008C65.4863 10.4238 64.9395 9.56445 64.1484 9.56445ZM78.4258 14.9648V15.7363H70.418V14.9648H72.332V12.6797C71.6143 12.2842 71.1797 11.6543 71.1797 10.873C71.1797 9.49609 72.5273 8.58789 74.4023 8.58789C76.2871 8.58789 77.6348 9.49609 77.6348 10.873C77.6348 11.6445 77.2148 12.2646 76.5117 12.6602V14.9648H78.4258ZM74.4023 9.33008C73.0254 9.33008 72.0781 9.92578 72.0781 10.873C72.0781 11.8105 73.0254 12.4258 74.4023 12.4258C75.7695 12.4258 76.7363 11.8105 76.7363 10.873C76.7363 9.92578 75.7695 9.33008 74.4023 9.33008ZM73.25 14.9648H75.5742V13.0117C75.2178 13.1045 74.8223 13.1484 74.4023 13.1484C73.9922 13.1484 73.6016 13.1045 73.25 13.0215V14.9648ZM80.6719 8.92969L80.584 13.959H79.6172L79.5293 8.92969H80.6719ZM80.1055 16.0684C79.7246 16.0684 79.4023 15.7559 79.4121 15.375C79.4023 14.9941 79.7246 14.6816 80.1055 14.6816C80.4766 14.6816 80.7988 14.9941 80.7988 15.375C80.7988 15.7559 80.4766 16.0684 80.1055 16.0684Z" fill="black"/>
<path d="M51.5 28C53.3082 28 55 25 55 25H48C48 25 49.6918 28 51.5 28Z" fill="#FFF0F3"/>
</svg>
